<svg id="visual" viewBox="0 0 420 600" width="420" height="600" xmlns="http://www.w3.org/2000/svg" xmlns:xlink="http://www.w3.org/1999/xlink" version="1.1"><rect x="0" y="0" width="420" height="600" fill="#957936"></rect><defs><linearGradient id="grad1_0" x1="0%" y1="0%" x2="100%" y2="100%"><stop offset="30%" stop-color="#2d5a3d" stop-opacity="1"></stop><stop offset="70%" stop-color="#2d5a3d" stop-opacity="1"></stop></linearGradient></defs><defs><linearGradient id="grad1_1" x1="0%" y1="0%" x2="100%" y2="100%"><stop offset="30%" stop-color="#2d5a3d" stop-opacity="1"></stop><stop offset="70%" stop-color="#3e623a" stop-opacity="1"></stop></linearGradient></defs><defs><linearGradient id="grad1_2" x1="0%" y1="0%" x2="100%" y2="100%"><stop offset="30%" stop-color="#526936" stop-opacity="1"></stop><stop offset="70%" stop-color="#3e623a" stop-opacity="1"></stop></linearGradient></defs><defs><linearGradient id="grad1_3" x1="0%" y1="0%" x2="100%" y2="100%"><stop offset="30%" stop-color="#526936" stop-opacity="1"></stop><stop offset="70%" stop-color="#677034" stop-opacity="1"></stop></linearGradient></defs><defs><linearGradient id="grad1_4" x1="0%" y1="0%" x2="100%" y2="100%"><stop offset="30%" stop-color="#7d7533" stop-opacity="1"></stop><stop offset="70%" stop-color="#677034" stop-opacity="1"></stop></linearGradient></defs><defs><linearGradient id="grad1_5" x1="0%" y1="0%" x2="100%" y2="100%"><stop offset="30%" stop-color="#7d7533" stop-opacity="1"></stop><stop offset="70%" stop-color="#957936" stop-opacity="1"></stop></linearGradient></defs><defs><linearGradient id="grad2_0" x1="0%" y1="0%" x2="100%" y2="100%"><stop offset="30%" stop-color="#2d5a3d" stop-opacity="1"></stop><stop offset="70%" stop-color="#2d5a3d" stop-opacity="1"></stop></linearGradient></defs><defs><linearGradient id="grad2_1" x1="0%" y1="0%" x2="100%" y2="100%"><stop offset="30%" stop-color="#3e623a" stop-opacity="1"></stop><stop offset="70%" stop-color="#2d5a3d" stop-opacity="1"></stop></linearGradient></defs><defs><linearGradient id="grad2_2" x1="0%" y1="0%" x2="100%" y2="100%"><stop offset="30%" stop-color="#3e623a" stop-opacity="1"></stop><stop offset="70%" stop-color="#526936" stop-opacity="1"></stop></linearGradient></defs><defs><linearGradient id="grad2_3" x1="0%" y1="0%" x2="100%" y2="100%"><stop offset="30%" stop-color="#677034" stop-opacity="1"></stop><stop offset="70%" stop-color="#526936" stop-opacity="1"></stop></linearGradient></defs><defs><linearGradient id="grad2_4" x1="0%" y1="0%" x2="100%" y2="100%"><stop offset="30%" stop-color="#677034" stop-opacity="1"></stop><stop offset="70%" stop-color="#7d7533" stop-opacity="1"></stop></linearGradient></defs><defs><linearGradient id="grad2_5" x1="0%" y1="0%" x2="100%" y2="100%"><stop offset="30%" stop-color="#957936" stop-opacity="1"></stop><stop offset="70%" stop-color="#7d7533" stop-opacity="1"></stop></linearGradient></defs><g transform="translate(420, 0)"><path d="M0 311.3C-12.5 302.4 -25 293.5 -33.5 276C-42 258.4 -46.6 232.2 -56.7 230.1C-66.8 228 -82.5 250.2 -100.4 264.6C-118.2 279.1 -138.4 285.8 -139.9 266.5C-141.4 247.2 -124.2 201.8 -131.8 190.9C-139.3 180.1 -171.6 203.7 -172.4 194.6C-173.3 185.5 -142.8 143.6 -159.4 141.2C-176.1 138.9 -239.9 176.2 -256.2 176.8C-272.4 177.4 -241.1 141.4 -229.3 120.4C-217.5 99.3 -225.2 93.4 -220.7 83.7C-216.1 74 -199.2 60.6 -216.5 53.4C-233.8 46.1 -285.3 45.1 -306.7 37.2C-328.2 29.4 -319.7 14.7 -311.3 0L0 0Z" fill="#897734"></path><path d="M0 259.4C-10.4 252 -20.8 244.6 -27.9 230C-35 215.3 -38.8 193.5 -47.3 191.8C-55.7 190 -68.7 208.5 -83.6 220.5C-98.5 232.5 -115.3 238.2 -116.6 222.1C-117.8 206 -103.5 168.2 -109.8 159.1C-116.1 150.1 -143 169.8 -143.7 162.2C-144.4 154.6 -119 119.6 -132.9 117.7C-146.7 115.8 -199.9 146.8 -213.5 147.3C-227 147.9 -200.9 117.8 -191.1 100.3C-181.3 82.8 -187.7 77.8 -183.9 69.7C-180.1 61.7 -166 50.5 -180.4 44.5C-194.8 38.5 -237.7 37.6 -255.6 31C-273.5 24.5 -266.5 12.2 -259.4 0L0 0Z" fill="#727233"></path><path d="M0 207.5C-8.3 201.6 -16.7 195.7 -22.3 184C-28 172.3 -31.1 154.8 -37.8 153.4C-44.5 152 -55 166.8 -66.9 176.4C-78.8 186 -92.3 190.6 -93.3 177.7C-94.3 164.8 -82.8 134.5 -87.9 127.3C-92.9 120 -114.4 135.8 -114.9 129.7C-115.5 123.7 -95.2 95.7 -106.3 94.2C-117.4 92.6 -159.9 117.5 -170.8 117.9C-181.6 118.3 -160.8 94.3 -152.9 80.2C-145 66.2 -150.2 62.3 -147.1 55.8C-144.1 49.3 -132.8 40.4 -144.3 35.6C-155.9 30.8 -190.2 30.1 -204.5 24.8C-218.8 19.6 -213.2 9.8 -207.5 0L0 0Z" fill="#5c6d35"></path><path d="M0 155.6C-6.2 151.2 -12.5 146.8 -16.8 138C-21 129.2 -23.3 116.1 -28.4 115.1C-33.4 114 -41.2 125.1 -50.2 132.3C-59.1 139.5 -69.2 142.9 -69.9 133.3C-70.7 123.6 -62.1 100.9 -65.9 95.5C-69.7 90 -85.8 101.9 -86.2 97.3C-86.6 92.7 -71.4 71.8 -79.7 70.6C-88 69.5 -120 88.1 -128.1 88.4C-136.2 88.7 -120.6 70.7 -114.7 60.2C-108.8 49.7 -112.6 46.7 -110.3 41.8C-108 37 -99.6 30.3 -108.3 26.7C-116.9 23.1 -142.6 22.6 -153.4 18.6C-164.1 14.7 -159.9 7.3 -155.6 0L0 0Z" fill="#486638"></path><path d="M0 103.8C-4.2 100.8 -8.3 97.8 -11.2 92C-14 86.1 -15.5 77.4 -18.9 76.7C-22.3 76 -27.5 83.4 -33.5 88.2C-39.4 93 -46.1 95.3 -46.6 88.8C-47.1 82.4 -41.4 67.3 -43.9 63.6C-46.4 60 -57.2 67.9 -57.5 64.9C-57.8 61.8 -47.6 47.9 -53.1 47.1C-58.7 46.3 -80 58.7 -85.4 58.9C-90.8 59.1 -80.4 47.1 -76.4 40.1C-72.5 33.1 -75.1 31.1 -73.6 27.9C-72 24.7 -66.4 20.2 -72.2 17.8C-77.9 15.4 -95.1 15 -102.2 12.4C-109.4 9.8 -106.6 4.9 -103.8 0L0 0Z" fill="#355e3c"></path><path d="M0 51.9C-2.1 50.4 -4.2 48.9 -5.6 46C-7 43.1 -7.8 38.7 -9.5 38.4C-11.1 38 -13.7 41.7 -16.7 44.1C-19.7 46.5 -23.1 47.6 -23.3 44.4C-23.6 41.2 -20.7 33.6 -22 31.8C-23.2 30 -28.6 34 -28.7 32.4C-28.9 30.9 -23.8 23.9 -26.6 23.5C-29.3 23.2 -40 29.4 -42.7 29.5C-45.4 29.6 -40.2 23.6 -38.2 20.1C-36.3 16.6 -37.5 15.6 -36.8 13.9C-36 12.3 -33.2 10.1 -36.1 8.9C-39 7.7 -47.5 7.5 -51.1 6.2C-54.7 4.9 -53.3 2.4 -51.9 0L0 0Z" fill="#2d5a3d"></path></g><g transform="translate(0, 600)"><path d="M0 -311.3C9.5 -271.6 18.9 -232 25.9 -213.4C32.9 -194.9 37.5 -197.3 55 -223.3C72.6 -249.3 103.1 -298.8 110.4 -291C117.7 -283.2 101.8 -218.1 100.8 -192.1C99.9 -166.2 113.7 -179.4 132.4 -191.8C151 -204.1 174.4 -215.7 194.3 -219.3C214.2 -223 230.6 -218.7 226.1 -200.3C221.5 -181.9 196 -149.3 199.2 -137.5C202.4 -125.6 234.3 -134.5 252.4 -132.4C270.4 -130.4 274.7 -117.3 274.9 -104.3C275.1 -91.2 271.3 -78.2 269.9 -66.5C268.6 -54.8 269.7 -44.5 277 -33.6C284.3 -22.8 297.8 -11.4 311.3 0L0 0Z" fill="#897734"></path><path d="M0 -259.4C7.9 -226.4 15.8 -193.3 21.6 -177.9C27.4 -162.4 31.3 -164.4 45.9 -186.1C60.5 -207.8 85.9 -249 92 -242.5C98.1 -236 84.9 -181.8 84 -160.1C83.2 -138.5 94.8 -149.5 110.3 -159.8C125.8 -170.1 145.3 -179.7 161.9 -182.8C178.5 -185.8 192.2 -182.2 188.4 -166.9C184.6 -151.5 163.3 -124.4 166 -114.6C168.6 -104.7 195.2 -112.1 210.3 -110.4C225.4 -108.6 228.9 -97.7 229.1 -86.9C229.3 -76 226.1 -65.2 224.9 -55.4C223.8 -45.7 224.7 -37.1 230.8 -28C236.9 -19 248.1 -9.5 259.4 0L0 0Z" fill="#727233"></path><path d="M0 -207.5C6.3 -181.1 12.6 -154.7 17.3 -142.3C22 -129.9 25 -131.5 36.7 -148.9C48.4 -166.2 68.7 -199.2 73.6 -194C78.5 -188.8 67.9 -145.4 67.2 -128.1C66.6 -110.8 75.8 -119.6 88.2 -127.8C100.7 -136.1 116.3 -143.8 129.5 -146.2C142.8 -148.6 153.7 -145.8 150.7 -133.5C147.7 -121.2 130.6 -99.5 132.8 -91.6C134.9 -83.8 156.2 -89.7 168.2 -88.3C180.3 -86.9 183.1 -78.2 183.3 -69.5C183.4 -60.8 180.9 -52.1 179.9 -44.4C179 -36.6 179.8 -29.7 184.6 -22.4C189.5 -15.2 198.5 -7.6 207.5 0L0 0Z" fill="#5c6d35"></path><path d="M0 -155.6C4.7 -135.8 9.5 -116 13 -106.7C16.5 -97.4 18.8 -98.7 27.5 -111.7C36.3 -124.7 51.5 -149.4 55.2 -145.5C58.8 -141.6 50.9 -109.1 50.4 -96.1C49.9 -83.1 56.9 -89.7 66.2 -95.9C75.5 -102.1 87.2 -107.8 97.1 -109.7C107.1 -111.5 115.3 -109.3 113 -100.1C110.7 -90.9 98 -74.7 99.6 -68.7C101.2 -62.8 117.1 -67.3 126.2 -66.2C135.2 -65.2 137.3 -58.6 137.4 -52.1C137.6 -45.6 135.6 -39.1 135 -33.3C134.3 -27.4 134.8 -22.2 138.5 -16.8C142.1 -11.4 148.9 -5.7 155.6 0L0 0Z" fill="#486638"></path><path d="M0 -103.8C3.2 -90.5 6.3 -77.3 8.6 -71.1C11 -65 12.5 -65.8 18.3 -74.4C24.2 -83.1 34.4 -99.6 36.8 -97C39.2 -94.4 33.9 -72.7 33.6 -64C33.3 -55.4 37.9 -59.8 44.1 -63.9C50.3 -68 58.1 -71.9 64.8 -73.1C71.4 -74.3 76.9 -72.9 75.4 -66.8C73.8 -60.6 65.3 -49.8 66.4 -45.8C67.5 -41.9 78.1 -44.8 84.1 -44.1C90.1 -43.5 91.6 -39.1 91.6 -34.8C91.7 -30.4 90.4 -26.1 90 -22.2C89.5 -18.3 89.9 -14.8 92.3 -11.2C94.8 -7.6 99.3 -3.8 103.8 0L0 0Z" fill="#355e3c"></path><path d="M0 -51.9C1.6 -45.3 3.2 -38.7 4.3 -35.6C5.5 -32.5 6.3 -32.9 9.2 -37.2C12.1 -41.6 17.2 -49.8 18.4 -48.5C19.6 -47.2 17 -36.4 16.8 -32C16.6 -27.7 19 -29.9 22.1 -32C25.2 -34 29.1 -35.9 32.4 -36.6C35.7 -37.2 38.4 -36.4 37.7 -33.4C36.9 -30.3 32.7 -24.9 33.2 -22.9C33.7 -20.9 39 -22.4 42.1 -22.1C45.1 -21.7 45.8 -19.5 45.8 -17.4C45.9 -15.2 45.2 -13 45 -11.1C44.8 -9.1 44.9 -7.4 46.2 -5.6C47.4 -3.8 49.6 -1.9 51.9 0L0 0Z" fill="#2d5a3d"></path></g></svg>