<svg id="visual" viewBox="0 0 1600 400" width="1600" height="400" xmlns="http://www.w3.org/2000/svg" xmlns:xlink="http://www.w3.org/1999/xlink" version="1.1"><rect x="0" y="0" width="1600" height="400" fill="#957936"></rect><defs><linearGradient id="grad1_0" x1="75%" y1="0%" x2="100%" y2="100%"><stop offset="-30%" stop-color="#2d5a3d" stop-opacity="1"></stop><stop offset="130%" stop-color="#2d5a3d" stop-opacity="1"></stop></linearGradient></defs><defs><linearGradient id="grad1_1" x1="75%" y1="0%" x2="100%" y2="100%"><stop offset="-30%" stop-color="#2d5a3d" stop-opacity="1"></stop><stop offset="130%" stop-color="#436439" stop-opacity="1"></stop></linearGradient></defs><defs><linearGradient id="grad1_2" x1="75%" y1="0%" x2="100%" y2="100%"><stop offset="-30%" stop-color="#5c6d35" stop-opacity="1"></stop><stop offset="130%" stop-color="#436439" stop-opacity="1"></stop></linearGradient></defs><defs><linearGradient id="grad1_3" x1="75%" y1="0%" x2="100%" y2="100%"><stop offset="-30%" stop-color="#5c6d35" stop-opacity="1"></stop><stop offset="130%" stop-color="#777433" stop-opacity="1"></stop></linearGradient></defs><defs><linearGradient id="grad1_4" x1="75%" y1="0%" x2="100%" y2="100%"><stop offset="-30%" stop-color="#957936" stop-opacity="1"></stop><stop offset="130%" stop-color="#777433" stop-opacity="1"></stop></linearGradient></defs><defs><linearGradient id="grad2_0" x1="0%" y1="0%" x2="25%" y2="100%"><stop offset="-30%" stop-color="#2d5a3d" stop-opacity="1"></stop><stop offset="130%" stop-color="#2d5a3d" stop-opacity="1"></stop></linearGradient></defs><defs><linearGradient id="grad2_1" x1="0%" y1="0%" x2="25%" y2="100%"><stop offset="-30%" stop-color="#436439" stop-opacity="1"></stop><stop offset="130%" stop-color="#2d5a3d" stop-opacity="1"></stop></linearGradient></defs><defs><linearGradient id="grad2_2" x1="0%" y1="0%" x2="25%" y2="100%"><stop offset="-30%" stop-color="#436439" stop-opacity="1"></stop><stop offset="130%" stop-color="#5c6d35" stop-opacity="1"></stop></linearGradient></defs><defs><linearGradient id="grad2_3" x1="0%" y1="0%" x2="25%" y2="100%"><stop offset="-30%" stop-color="#777433" stop-opacity="1"></stop><stop offset="130%" stop-color="#5c6d35" stop-opacity="1"></stop></linearGradient></defs><defs><linearGradient id="grad2_4" x1="0%" y1="0%" x2="25%" y2="100%"><stop offset="-30%" stop-color="#777433" stop-opacity="1"></stop><stop offset="130%" stop-color="#957936" stop-opacity="1"></stop></linearGradient></defs><g transform="translate(1600, 0)"><path d="M0 400C-16 399.1 -32.1 398.2 -47.9 394.1C-63.6 390 -79.2 382.9 -91.9 372.8C-104.6 362.8 -114.4 350 -134 353.4C-153.7 356.9 -183.1 376.5 -185 352.4C-186.8 328.3 -161 260.3 -171 247.7C-181 235.1 -226.8 277.8 -259.3 292.7C-291.7 307.6 -310.8 294.6 -299.4 265.2C-288 235.8 -246.1 190 -258.4 178.4C-270.7 166.8 -337.3 189.5 -343.6 180.3C-349.8 171.1 -295.8 130 -292.7 111C-289.5 92 -337.1 95 -352.5 86.9C-367.8 78.7 -350.9 59.3 -353.4 42.9C-355.9 26.6 -378 13.3 -400 0L0 0Z" fill="#867734"></path><path d="M0 320C-12.8 319.3 -25.6 318.5 -38.3 315.3C-50.9 312 -63.4 306.3 -73.5 298.3C-83.7 290.3 -91.5 280 -107.2 282.7C-122.9 285.5 -146.5 301.2 -148 281.9C-149.4 262.6 -128.8 208.3 -136.8 198.2C-144.8 188.1 -181.5 222.2 -207.4 234.1C-233.4 246 -248.7 235.7 -239.5 212.2C-230.4 188.7 -196.9 152 -206.7 142.7C-216.6 133.4 -269.8 151.6 -274.8 144.3C-279.9 136.9 -236.7 104 -234.1 88.8C-231.6 73.6 -269.7 76 -282 69.5C-294.2 63 -280.7 47.4 -282.7 34.3C-284.8 21.2 -302.4 10.6 -320 0L0 0Z" fill="#697033"></path><path d="M0 240C-9.6 239.4 -19.2 238.9 -28.7 236.5C-38.2 234 -47.5 229.7 -55.1 223.7C-62.8 217.7 -68.6 210 -80.4 212.1C-92.2 214.1 -109.9 225.9 -111 211.4C-112.1 197 -96.6 156.2 -102.6 148.6C-108.6 141.1 -136.1 166.7 -155.6 175.6C-175 184.5 -186.5 176.8 -179.6 159.1C-172.8 141.5 -147.7 114 -155.1 107C-162.4 100.1 -202.4 113.7 -206.1 108.2C-209.9 102.7 -177.5 78 -175.6 66.6C-173.7 55.2 -202.3 57 -211.5 52.1C-220.7 47.2 -210.5 35.6 -212 25.7C-213.6 15.9 -226.8 8 -240 0L0 0Z" fill="#4f6837"></path><path d="M0 160C-6.4 159.6 -12.8 159.3 -19.1 157.6C-25.5 156 -31.7 153.1 -36.8 149.1C-41.8 145.1 -45.8 140 -53.6 141.4C-61.5 142.7 -73.3 150.6 -74 141C-74.7 131.3 -64.4 104.1 -68.4 99.1C-72.4 94 -90.7 111.1 -103.7 117.1C-116.7 123 -124.3 117.9 -119.8 106.1C-115.2 94.3 -98.4 76 -103.4 71.3C-108.3 66.7 -134.9 75.8 -137.4 72.1C-139.9 68.4 -118.3 52 -117.1 44.4C-115.8 36.8 -134.8 38 -141 34.7C-147.1 31.5 -140.3 23.7 -141.4 17.2C-142.4 10.6 -151.2 5.3 -160 0L0 0Z" fill="#385f3b"></path><path d="M0 80C-3.2 79.8 -6.4 79.6 -9.6 78.8C-12.7 78 -15.8 76.6 -18.4 74.6C-20.9 72.6 -22.9 70 -26.8 70.7C-30.7 71.4 -36.6 75.3 -37 70.5C-37.4 65.7 -32.2 52.1 -34.2 49.5C-36.2 47 -45.4 55.6 -51.9 58.5C-58.3 61.5 -62.2 58.9 -59.9 53C-57.6 47.2 -49.2 38 -51.7 35.7C-54.1 33.4 -67.5 37.9 -68.7 36.1C-70 34.2 -59.2 26 -58.5 22.2C-57.9 18.4 -67.4 19 -70.5 17.4C-73.6 15.7 -70.2 11.9 -70.7 8.6C-71.2 5.3 -75.6 2.7 -80 0L0 0Z" fill="#2d5a3d"></path></g><g transform="translate(0, 400)"><path d="M0 -400C13.3 -367.9 26.5 -335.8 38.9 -320.6C51.3 -305.5 62.9 -307.2 76.3 -309.7C89.8 -312.3 105.1 -315.7 120.2 -317C135.3 -318.3 150.3 -317.5 165 -314.3C179.7 -311.1 194.1 -305.5 204.5 -296.3C214.9 -287.1 221.3 -274.3 242 -273.2C262.8 -272.1 297.9 -282.6 299.4 -265.2C300.9 -247.9 268.9 -202.8 260.9 -180.1C252.8 -157.3 268.8 -157 298.4 -156.6C328 -156.3 371.4 -156 371.2 -140.8C371 -125.6 327.1 -95.5 311.7 -76.8C296.2 -58.1 309.1 -50.8 328.6 -39.9C348 -29 374 -14.5 400 0L0 0Z" fill="#867734"></path><path d="M0 -320C10.6 -294.3 21.2 -268.7 31.1 -256.5C41.1 -244.4 50.3 -245.7 61.1 -247.8C71.8 -249.8 84.1 -252.5 96.2 -253.6C108.3 -254.6 120.2 -254 132 -251.5C143.7 -248.9 155.3 -244.4 163.6 -237C171.9 -229.7 177 -219.5 193.6 -218.6C210.2 -217.7 238.3 -226.1 239.5 -212.2C240.8 -198.3 215.1 -162.3 208.7 -144.1C202.3 -125.9 215 -125.6 238.7 -125.3C262.4 -125 297.1 -124.8 297 -112.6C296.8 -100.5 261.7 -76.4 249.3 -61.5C237 -46.5 247.3 -40.6 262.9 -31.9C278.4 -23.2 299.2 -11.6 320 0L0 0Z" fill="#697033"></path><path d="M0 -240C8 -220.7 15.9 -201.5 23.4 -192.4C30.8 -183.3 37.7 -184.3 45.8 -185.8C53.9 -187.4 63 -189.4 72.1 -190.2C81.2 -191 90.2 -190.5 99 -188.6C107.8 -186.7 116.5 -183.3 122.7 -177.8C128.9 -172.2 132.8 -164.6 145.2 -163.9C157.7 -163.2 178.7 -169.5 179.6 -159.1C180.6 -148.8 161.4 -121.7 156.5 -108C151.7 -94.4 161.3 -94.2 179 -94C196.8 -93.8 222.9 -93.6 222.7 -84.5C222.6 -75.4 196.3 -57.3 187 -46.1C177.7 -34.9 185.5 -30.5 197.2 -23.9C208.8 -17.4 224.4 -8.7 240 0L0 0Z" fill="#4f6837"></path><path d="M0 -160C5.3 -147.2 10.6 -134.3 15.6 -128.3C20.5 -122.2 25.2 -122.9 30.5 -123.9C35.9 -124.9 42 -126.3 48.1 -126.8C54.1 -127.3 60.1 -127 66 -125.7C71.9 -124.5 77.6 -122.2 81.8 -118.5C86 -114.8 88.5 -109.7 96.8 -109.3C105.1 -108.8 119.1 -113 119.8 -106.1C120.4 -99.2 107.6 -81.1 104.4 -72C101.1 -62.9 107.5 -62.8 119.4 -62.6C131.2 -62.5 148.6 -62.4 148.5 -56.3C148.4 -50.2 130.9 -38.2 124.7 -30.7C118.5 -23.2 123.7 -20.3 131.4 -16C139.2 -11.6 149.6 -5.8 160 0L0 0Z" fill="#385f3b"></path><path d="M0 -80C2.7 -73.6 5.3 -67.2 7.8 -64.1C10.3 -61.1 12.6 -61.4 15.3 -61.9C18 -62.5 21 -63.1 24 -63.4C27.1 -63.7 30.1 -63.5 33 -62.9C35.9 -62.2 38.8 -61.1 40.9 -59.3C43 -57.4 44.3 -54.9 48.4 -54.6C52.6 -54.4 59.6 -56.5 59.9 -53C60.2 -49.6 53.8 -40.6 52.2 -36C50.6 -31.5 53.8 -31.4 59.7 -31.3C65.6 -31.3 74.3 -31.2 74.2 -28.2C74.2 -25.1 65.4 -19.1 62.3 -15.4C59.2 -11.6 61.8 -10.2 65.7 -8C69.6 -5.8 74.8 -2.9 80 0L0 0Z" fill="#2d5a3d"></path></g></svg>