<svg id="visual" viewBox="0 0 1500 600" width="1500" height="600" xmlns="http://www.w3.org/2000/svg" xmlns:xlink="http://www.w3.org/1999/xlink" version="1.1"><path d="M0 377L214 295L429 291L643 364L857 308L1071 268L1286 315L1500 388L1500 0L1286 0L1071 0L857 0L643 0L429 0L214 0L0 0Z" fill="#f5730a"></path><path d="M0 334L214 321L429 268L643 255L857 244L1071 216L1286 304L1500 218L1500 0L1286 0L1071 0L857 0L643 0L429 0L214 0L0 0Z" fill="#da5b09"></path><path d="M0 177L214 184L429 175L643 158L857 257L1071 170L1286 189L1500 201L1500 0L1286 0L1071 0L857 0L643 0L429 0L214 0L0 0Z" fill="#be4407"></path><path d="M0 177L214 133L429 115L643 144L857 102L1071 178L1286 153L1500 98L1500 0L1286 0L1071 0L857 0L643 0L429 0L214 0L0 0Z" fill="#a32d04"></path><path d="M0 100L214 71L429 58L643 57L857 81L1071 86L1286 56L1500 82L1500 0L1286 0L1071 0L857 0L643 0L429 0L214 0L0 0Z" fill="#871400"></path></svg>