<svg id="visual" viewBox="0 0 1500 600" width="1500" height="600" xmlns="http://www.w3.org/2000/svg" xmlns:xlink="http://www.w3.org/1999/xlink" version="1.1"><rect x="0" y="0" width="1500" height="600" fill="#931C1C"></rect><path d="M0 424L214 358L429 441L643 413L857 415L1071 371L1286 428L1500 438L1500 601L1286 601L1071 601L857 601L643 601L429 601L214 601L0 601Z" fill="#f5730a"></path><path d="M0 419L214 403L429 409L643 469L857 448L1071 434L1286 474L1500 449L1500 601L1286 601L1071 601L857 601L643 601L429 601L214 601L0 601Z" fill="#da5b09"></path><path d="M0 485L214 437L429 501L643 509L857 481L1071 507L1286 451L1500 456L1500 601L1286 601L1071 601L857 601L643 601L429 601L214 601L0 601Z" fill="#be4407"></path><path d="M0 486L214 496L429 520L643 539L857 535L1071 489L1286 506L1500 486L1500 601L1286 601L1071 601L857 601L643 601L429 601L214 601L0 601Z" fill="#a32d04"></path><path d="M0 543L214 532L429 551L643 558L857 549L1071 554L1286 540L1500 563L1500 601L1286 601L1071 601L857 601L643 601L429 601L214 601L0 601Z" fill="#871400"></path></svg>